<?xml version="1.0" standalone="no"?><!DOCTYPE svg PUBLIC "-//W3C//DTD SVG 1.1//EN" "http://www.w3.org/Graphics/SVG/1.1/DTD/svg11.dtd"><svg class="icon" height="512" viewBox="0 0 1024 1024" version="1.1" xmlns="http://www.w3.org/2000/svg"><path d="M755.395 496.24l-19.241 50.67h-50.725l41.98 31.446-19.241 57.656 47.227-34.944 47.23 34.944-19.241-57.656 41.984-31.446h-50.729l-19.245-50.67zM533.244 461.299l47.229-34.944 47.227 34.944-19.241-57.656 41.983-31.442h-50.725l-19.245-50.665-19.241 50.665h-50.731l41.983 31.442-19.241 57.656zM895.338 199.233h-69.969l-26.243-69.886-26.238 69.886h-69.969l57.725 43.679-26.234 78.623 66.467-48.926 66.471 48.926-26.238-78.623 54.229-43.679zM388.060 372.2c0-92.6 33.232-176.464 87.459-242.853-195.913 17.472-349.847 183.45-349.847 384.365 0 213.148 171.426 384.361 384.829 384.361 120.702 0 244.894-55.905 314.867-141.516-12.247 1.751-40.232 1.751-52.479 1.751-213.406 0.001-384.829-172.963-384.829-386.108v0zM510.502 863.131z" /></svg>