<?xml version="1.0" standalone="no"?><!DOCTYPE svg PUBLIC "-//W3C//DTD SVG 1.1//EN" "http://www.w3.org/Graphics/SVG/1.1/DTD/svg11.dtd"><svg class="icon" height="512" viewBox="0 0 1024 1024" version="1.1" xmlns="http://www.w3.org/2000/svg"><path d="M777.309091 518.050909c6.981818 0 14.429091-2.792727 19.549091-8.378182L907.636364 399.36c10.705455-10.705455 10.705455-28.392727 0-39.563636-10.705455-10.705455-28.392727-10.705455-39.563637 0l-110.778182 110.778181c-10.705455 10.705455-10.705455 28.392727 0 39.563637 5.585455 5.585455 13.032727 7.912727 20.014546 7.912727zM227.141818 510.138182c5.585455 5.585455 12.567273 8.378182 19.549091 8.378182s14.429091-2.792727 19.549091-8.378182c10.705455-10.705455 10.705455-28.392727 0-39.563637L155.927273 359.796364c-10.705455-10.705455-28.392727-10.705455-39.563637 0-10.705455 10.705455-10.705455 28.392727 0 39.563636l110.778182 110.778182zM512 418.443636c15.36 0 27.927273-12.567273 27.927273-27.927272V200.145455c0-15.36-12.567273-27.927273-27.927273-27.927273s-27.927273 12.567273-27.927273 27.927273v189.905454c0 15.825455 12.567273 28.392727 27.927273 28.392727zM773.12 795.927273H250.88c-15.36 0-27.927273 12.567273-27.927273 27.927272s12.567273 27.927273 27.927273 27.927273h522.24c15.36 0 27.927273-12.567273 27.927273-27.927273s-12.567273-27.927273-27.927273-27.927272zM928.581818 700.043636h-128.465454v-3.723636c-6.516364-71.68-39.098182-137.774545-92.16-186.647273-53.527273-49.338182-122.88-76.334545-195.490909-76.334545S370.036364 460.8 316.509091 509.672727c-53.061818 48.872727-85.643636 114.967273-92.16 186.647273v3.723636H95.418182c-15.36 0-27.927273 12.567273-27.927273 27.927273s12.567273 27.927273 27.927273 27.927273h832.698182c15.36 0 27.927273-12.567273 27.927272-27.927273s-12.101818-27.927273-27.461818-27.927273z m-648.843636 0c11.636364-120.087273 111.243636-210.850909 232.261818-210.850909s220.625455 90.763636 232.261818 210.850909H279.738182z" /></svg>